{"asset":{"generator":"Khronos glTF Spline I/O v0.0.1","version":"2.0"},"scenes":[{"nodes":[0]}],"nodes":[{"name":"","children":[1,2,3]},{"name":"Pyramid 2","matrix":[5.6720397390713875e-15,-4.965436917338936e-15,-1.8921923003934953,0,-0.8655693500103511,-0.10451217109075721,-2.3644022305201275e-15,0,-0.055789818598775374,0.6007782330943163,-1.4298103809873697e-15,0,-206.0873042436515,363.9121272008447,-1069.5288155065543,1],"mesh":0,"children":[4,5]},{"name":"Directional Light","translation":[-1556.8916185527523,1214.606379831257,2137.984288510674],"rotation":[-0.3273481611161847,-0.15980155708446034,0.4085476849080035,0.8368963095411193],"extensions":{"KHR_lights_punctual":{"light":0}}},{"name":"Personal Camera","camera":0,"translation":[-5824.860876080798,1731.7972218611392,-3228.1319890621166],"rotation":[-0.060758845673871624,-0.8163279165066931,-0.08736849061290691,0.5677004863942274]},{"name":"Sphere","matrix":[0,-9.860761315262648e-32,0.7142857142857252,0,9.12581792483729e-17,0.4347826086956578,8.628166150854817e-32,0,-0.20000000000000362,-4.1978762454251757e-17,-1.232595164407831e-32,0,4.72701576432164,-206.5834010863026,58.20685587777363,1],"mesh":1},{"name":"Pyramid","matrix":[2.580956786915953e-8,-0.04622919095691548,0.9989308594209532,0,3.8402741055793457e-16,1.997861718841882,0.09245838191382982,0,-3.0000000000000164,-3.579467030047768e-9,7.734592371339837e-8,0,1.396517612492729,-76.86931362241634,14.183368806472892,1],"mesh":2}],"cameras":[{"type":"orthographic","orthographic":{"xmag":1440,"ymag":815,"zfar":100000,"znear":-100000}}],"meshes":[{"primitives":[{"attributes":{"POSITION":1,"NORMAL":2,"FACEMAP":3,"COLOR":4,"EXTRUDENORMAL":5,"RANDOMCOLOR":6},"indices":0}]},{"primitives":[{"attributes":{"POSITION":8,"NORMAL":9,"FACEMAP":10,"COLOR":11,"RANDOMCOLOR":12,"EXTRUDENORMAL":13},"indices":7}]},{"primitives":[{"attributes":{"POSITION":15,"NORMAL":16,"FACEMAP":17,"COLOR":18,"RANDOMCOLOR":19,"EXTRUDENORMAL":20},"indices":14}]}],"buffers":[{"uri":"data:application/octet-stream;base64,","byteLength":5696},{"uri":"data:application/octet-stream;base64,","byteLength":71296},{"uri":"data:application/octet-stream;base64,","byteLength":6912}],"bufferViews":[{"buffer":0,"byteOffset":0,"byteLength":384,"target":34963},{"buffer":0,"byteOffset":384,"byteLength":960,"target":34962},{"buffer":0,"byteOffset":1344,"byteLength":960,"target":34962},{"buffer":0,"byteOffset":2304,"byteLength":192,"target":34962},{"buffer":0,"byteOffset":2496,"byteLength":1280,"target":34962},{"buffer":0,"byteOffset":3776,"byteLength":960,"target":34962},{"buffer":0,"byteOffset":4736,"byteLength":960,"target":34962},{"buffer":1,"byteOffset":0,"byteLength":5760,"target":34963},{"buffer":1,"byteOffset":5760,"byteLength":11904,"target":34962},{"buffer":1,"byteOffset":17664,"byteLength":11904,"target":34962},{"buffer":1,"byteOffset":29568,"byteLength":2048,"target":34962},{"buffer":1,"byteOffset":31616,"byteLength":15872,"target":34962},{"buffer":1,"byteOffset":47488,"byteLength":11904,"target":34962},{"buffer":1,"byteOffset":59392,"byteLength":11904,"target":34962},{"buffer":2,"byteOffset":0,"byteLength":576,"target":34963},{"buffer":2,"byteOffset":576,"byteLength":1152,"target":34962},{"buffer":2,"byteOffset":1728,"byteLength":1152,"target":34962},{"buffer":2,"byteOffset":2880,"byteLength":192,"target":34962},{"buffer":2,"byteOffset":3072,"byteLength":1536,"target":34962},{"buffer":2,"byteOffset":4608,"byteLength":1152,"target":34962},{"buffer":2,"byteOffset":5760,"byteLength":1152,"target":34962}],"accessors":[{"bufferView":0,"byteOffset":0,"componentType":5125,"count":96,"type":"SCALAR","min":[0],"max":[79]},{"bufferView":1,"byteOffset":0,"componentType":5126,"count":80,"type":"VEC3","min":[-172.3570098876953,-727.85546875,-236.83128356933594],"max":[172.3570098876953,294.1310119628906,236.83128356933594]},{"bufferView":2,"byteOffset":0,"componentType":5126,"count":80,"type":"VEC3","min":[-0.9923694133758545,-1,-0.9857372045516968],"max":[0.9923694133758545,0.6751468777656555,0.9857372045516968]},{"bufferView":3,"byteOffset":0,"componentType":5125,"count":48,"type":"SCALAR","min":[0],"max":[31]},{"bufferView":4,"byteOffset":0,"componentType":5126,"count":80,"type":"VEC4","min":[0,0,0,0],"max":[0,0,0,0]},{"bufferView":5,"byteOffset":0,"componentType":5126,"count":80,"type":"VEC3","min":[-0.7981112003326416,-1,-0.6693210005760193],"max":[0.7981112003326416,0.6751468777656555,0.6693210005760193]},{"bufferView":6,"byteOffset":0,"componentType":5126,"count":80,"type":"VEC3","min":[0.35660964250564575,0.35660964250564575,0.35660964250564575],"max":[0.35660964250564575,0.35660964250564575,0.35660964250564575]},{"bufferView":7,"byteOffset":0,"componentType":5125,"count":1440,"type":"SCALAR","min":[0],"max":[991]},{"bufferView":8,"byteOffset":0,"componentType":5126,"count":992,"type":"VEC3","min":[-267.81671142578125,-499.9999694824219,-150],"max":[267.81671142578125,499.9999694824219,150]},{"bufferView":9,"byteOffset":0,"componentType":5126,"count":992,"type":"VEC3","min":[-0.9411739110946655,-0.9814890623092651,-0.9934231042861938],"max":[0.9411739110946655,0.9814890623092651,0.9934231042861938]},{"bufferView":10,"byteOffset":0,"componentType":5125,"count":512,"type":"SCALAR","min":[0],"max":[479]},{"bufferView":11,"byteOffset":0,"componentType":5126,"count":992,"type":"VEC4","min":[0,0,0,0],"max":[0,0,0,0]},{"bufferView":12,"byteOffset":0,"componentType":5126,"count":992,"type":"VEC3","min":[0.10535318404436111,0.10535318404436111,0.10535318404436111],"max":[0.10535318404436111,0.10535318404436111,0.10535318404436111]},{"bufferView":13,"byteOffset":0,"componentType":5126,"count":992,"type":"VEC3","min":[-0.9411739110946655,-0.9653471112251282,-0.9934231042861938],"max":[0.9411739110946655,0.9653471112251282,0.9934231042861938]},{"bufferView":14,"byteOffset":0,"componentType":5125,"count":144,"type":"SCALAR","min":[0],"max":[95]},{"bufferView":15,"byteOffset":0,"componentType":5126,"count":96,"type":"VEC3","min":[-219.8814697265625,-321.89776611328125,-119.05885314941406],"max":[219.8814697265625,53.649620056152344,119.05885314941406]},{"bufferView":16,"byteOffset":0,"componentType":5126,"count":96,"type":"VEC3","min":[-0.7662357091903687,-0.9999999403953552,-0.9629538059234619],"max":[0.7662357091903687,0.7377753853797913,0.9629538059234619]},{"bufferView":17,"byteOffset":0,"componentType":5125,"count":48,"type":"SCALAR","min":[0],"max":[47]},{"bufferView":18,"byteOffset":0,"componentType":5126,"count":96,"type":"VEC4","min":[0,0,0,0],"max":[0,0,0,0]},{"bufferView":19,"byteOffset":0,"componentType":5126,"count":96,"type":"VEC3","min":[0.8227895498275757,0.8165231943130493,0.8165231943130493],"max":[0.8227895498275757,0.8165231943130493,0.8165231943130493]},{"bufferView":20,"byteOffset":0,"componentType":5126,"count":96,"type":"VEC3","min":[-0.7358391880989075,-0.9999999403953552,-0.9288346171379089],"max":[0.7358391880989075,0.6235315799713135,0.9288346171379089]}],"extensions":{"KHR_lights_punctual":{"lights":[{"type":"directional","name":"Directional Light","color":[0.8923138368476942,0.8003102159999028,0.6973909113227125],"intensity":0.8}]}},"extensionsUsed":["KHR_lights_punctual"]}